<?xml version="1.0" encoding="utf-8"?>
<!-- Generator: Adobe Illustrator 25.2.2, SVG Export Plug-In . SVG Version: 6.00 Build 0)  -->
<svg version="1.1" id="Layer_1" xmlns="http://www.w3.org/2000/svg" xmlns:xlink="http://www.w3.org/1999/xlink" x="0px" y="0px"
	 viewBox="0 0 204 64" style="enable-background:new 0 0 204 64;" xml:space="preserve">
<style type="text/css">
	.st0{fill:#FFFFFF;}
	.st1{fill:url(#SVGID_1_);}
	.st2{fill:url(#SVGID_2_);}
</style>
<path class="st0" d="M125.8,50V8.2h7.5v15.1c2.6-2.4,5.8-3.8,9.3-3.8c8.2,0,15.4,6.2,15.4,15.6c0,9.4-7.2,15.6-15.4,15.6
	c-3.7,0-7.1-1.5-9.7-4.1V50H125.8z M150.6,35.1c0-5.2-3.7-8.9-8.6-8.9c-4.7,0-8.4,3.5-8.6,8.5v0.4c0,5.2,3.7,8.9,8.6,8.9
	S150.6,40.3,150.6,35.1z M161.6,50V8.2h7.5V50H161.6z M179.7,60.8l4.4-10.5l-11.9-30h8.2l7.6,21l7.7-21h8.3l-16.2,40.6L179.7,60.8
	L179.7,60.8z M113.9,20.3V24c-2.6-2.9-6.3-4.5-10-4.5c-8.2,0-15.4,6.2-15.4,15.6c0,9.4,7.2,15.6,15.4,15.6c3.9,0,7.6-1.7,10.3-4.7v4
	h6.6V20.3H113.9z M113.1,35.1c0,5.2-3.7,8.9-8.6,8.9c-4.9,0-8.6-3.7-8.6-8.9s3.7-8.9,8.6-8.9c4.7,0,8.4,3.5,8.6,8.5V35.1z"/>
<linearGradient id="SVGID_1_" gradientUnits="userSpaceOnUse" x1="10.9466" y1="-8.8433" x2="64.92" y2="51.1001" gradientTransform="matrix(1 0 0 -1 0 66)">
	<stop  offset="0" style="stop-color:#FF5416"/>
	<stop  offset="0.2535" style="stop-color:#FF5115"/>
	<stop  offset="0.461" style="stop-color:#FF4712"/>
	<stop  offset="0.6523" style="stop-color:#FF350E"/>
	<stop  offset="0.8327" style="stop-color:#FF1E08"/>
	<stop  offset="1" style="stop-color:#FF0000"/>
</linearGradient>
<path class="st1" d="M38.6,0L6.3,59.1L0,54.7L29.9,0H38.6z M39,0l32.3,59.1l6.3-4.4L47.7,0H39z"/>
<linearGradient id="SVGID_2_" gradientUnits="userSpaceOnUse" x1="21.4192" y1="-12.7207" x2="53.319" y2="22.7075" gradientTransform="matrix(1 0 0 -1 0 66)">
	<stop  offset="0" style="stop-color:#FF5416"/>
	<stop  offset="0.2535" style="stop-color:#FF5115"/>
	<stop  offset="0.461" style="stop-color:#FF4712"/>
	<stop  offset="0.6523" style="stop-color:#FF350E"/>
	<stop  offset="0.8327" style="stop-color:#FF1E08"/>
	<stop  offset="1" style="stop-color:#FF0000"/>
</linearGradient>
<path class="st2" d="M70.8,59.4L38.8,34.3L6.7,59.4l6.5,4.6l25.5-20l25.5,20L70.8,59.4z"/>
</svg>
